<svg width="14" height="14" viewBox="0 0 14 14" fill="none" xmlns="http://www.w3.org/2000/svg">
<path d="M1.75012 6.98804C1.75012 7.10294 1.77275 7.21673 1.81673 7.32289C1.8607 7.42905 1.92515 7.5255 2.0064 7.60676C2.08765 7.68801 2.18411 7.75246 2.29027 7.79643C2.39643 7.8404 2.51022 7.86304 2.62512 7.86304C2.74003 7.86304 2.85381 7.8404 2.95997 7.79643C3.06613 7.75246 3.16259 7.68801 3.24384 7.60676C3.32509 7.5255 3.38954 7.42905 3.43352 7.32289C3.47749 7.21673 3.50012 7.10294 3.50012 6.98804C3.50012 6.87313 3.47749 6.75935 3.43352 6.65319C3.38954 6.54703 3.32509 6.45057 3.24384 6.36932C3.16259 6.28807 3.06613 6.22362 2.95997 6.17964C2.85381 6.13567 2.74003 6.11304 2.62512 6.11304C2.51022 6.11304 2.39643 6.13567 2.29027 6.17964C2.18411 6.22362 2.08765 6.28807 2.0064 6.36932C1.92515 6.45057 1.8607 6.54703 1.81673 6.65319C1.77275 6.75935 1.75012 6.87313 1.75012 6.98804V6.98804ZM6.12512 6.98804C6.12512 7.2201 6.21731 7.44266 6.3814 7.60676C6.5455 7.77085 6.76806 7.86304 7.00012 7.86304C7.23219 7.86304 7.45475 7.77085 7.61884 7.60676C7.78294 7.44266 7.87512 7.2201 7.87512 6.98804C7.87512 6.75597 7.78294 6.53341 7.61884 6.36932C7.45475 6.20522 7.23219 6.11304 7.00012 6.11304C6.76806 6.11304 6.5455 6.20522 6.3814 6.36932C6.21731 6.53341 6.12512 6.75597 6.12512 6.98804V6.98804ZM10.5001 6.98804C10.5001 7.2201 10.5923 7.44266 10.7564 7.60676C10.9205 7.77085 11.1431 7.86304 11.3751 7.86304C11.6072 7.86304 11.8297 7.77085 11.9938 7.60676C12.1579 7.44266 12.2501 7.2201 12.2501 6.98804C12.2501 6.75597 12.1579 6.53341 11.9938 6.36932C11.8297 6.20522 11.6072 6.11304 11.3751 6.11304C11.1431 6.11304 10.9205 6.20522 10.7564 6.36932C10.5923 6.53341 10.5001 6.75597 10.5001 6.98804V6.98804Z" fill="#1890FF"/>
</svg>
