<svg width="14" height="14" viewBox="0 0 14 14" fill="none" xmlns="http://www.w3.org/2000/svg">
<path d="M6.90156 9.32532C6.91326 9.34026 6.92819 9.35234 6.94525 9.36065C6.96231 9.36896 6.98103 9.37328 7 9.37328C7.01897 9.37328 7.03769 9.36896 7.05475 9.36065C7.0718 9.35234 7.08674 9.34026 7.09844 9.32532L8.84844 7.11126C8.9125 7.03001 8.85469 6.90969 8.75 6.90969H7.59219V1.62219C7.59219 1.55344 7.53594 1.49719 7.46719 1.49719H6.52969C6.46094 1.49719 6.40469 1.55344 6.40469 1.62219V6.90813H5.25C5.14531 6.90813 5.0875 7.02844 5.15156 7.10969L6.90156 9.32532ZM12.7188 8.77844H11.7812C11.7125 8.77844 11.6562 8.83469 11.6562 8.90344V11.3097H2.34375V8.90344C2.34375 8.83469 2.2875 8.77844 2.21875 8.77844H1.28125C1.2125 8.77844 1.15625 8.83469 1.15625 8.90344V11.9972C1.15625 12.2738 1.37969 12.4972 1.65625 12.4972H12.3438C12.6203 12.4972 12.8438 12.2738 12.8438 11.9972V8.90344C12.8438 8.83469 12.7875 8.77844 12.7188 8.77844Z" fill="white"/>
</svg>
