<svg width="12" height="12" viewBox="0 0 12 12" fill="none" xmlns="http://www.w3.org/2000/svg">
<g clip-path="url(#clip0_179533_21044)">
<path d="M11.0073 5.71321C11.0555 5.55249 11.0796 5.38642 11.0796 5.21767C11.0796 4.83865 10.9551 4.47437 10.7301 4.17705C10.7783 4.01633 10.8024 3.85026 10.8024 3.68151C10.8024 3.30249 10.6778 2.93821 10.4528 2.64089C10.5011 2.48017 10.5252 2.3141 10.5252 2.14535C10.5252 1.45428 10.114 0.831512 9.47651 0.559637C9.36445 0.511327 9.24362 0.486705 9.1216 0.487316H1.07115C0.834096 0.487316 0.642578 0.678834 0.642578 0.915887V5.79089C0.642578 6.02794 0.834096 6.21946 1.07115 6.21946H2.80285L3.95195 10.382C4.13677 11.0529 4.75285 11.5217 5.44927 11.5217C5.84704 11.5217 6.21802 11.3637 6.49258 11.0744C6.76713 10.7864 6.90776 10.4087 6.88767 10.011L6.80731 8.36499H10.0203C10.1823 8.36499 10.3403 8.32214 10.4796 8.24044C11.0207 7.92571 11.3569 7.35517 11.3569 6.75383C11.3569 6.37482 11.2323 6.01053 11.0073 5.71321V5.71321ZM1.60686 5.25383V1.45026H2.69169V5.25383H1.60686ZM10.0069 7.40205H5.79615L5.92472 10.0592C5.93276 10.2186 5.86177 10.3686 5.72919 10.4677C5.64749 10.5279 5.54704 10.5587 5.4466 10.5574C5.31827 10.5562 5.19381 10.5133 5.0919 10.4353C4.98999 10.3573 4.91613 10.2484 4.88142 10.1248L3.54883 5.29669V1.45026H9.11222C9.24609 1.51026 9.35978 1.60765 9.43961 1.73072C9.51944 1.8538 9.56202 1.99731 9.56222 2.14401C9.56222 2.27392 9.53142 2.39714 9.46981 2.50964L9.28365 2.84982L9.57695 3.10428C9.65951 3.17578 9.72569 3.26423 9.77099 3.36361C9.81628 3.46299 9.83964 3.57096 9.83945 3.68017C9.83945 3.81008 9.80865 3.9333 9.74704 4.0458L9.56088 4.38598L9.85419 4.64044C9.93674 4.71194 10.0029 4.80039 10.0482 4.89977C10.0935 4.99915 10.1169 5.10712 10.1167 5.21633C10.1167 5.34624 10.0859 5.46946 10.0243 5.58196L9.83678 5.92348L10.1301 6.17794C10.2126 6.24944 10.2788 6.33789 10.3241 6.43727C10.3694 6.53665 10.3928 6.64462 10.3926 6.75383C10.3926 7.00964 10.2453 7.25607 10.0069 7.40205V7.40205Z" fill="black" fill-opacity="0.45"/>
</g>
<defs>
<clipPath id="clip0_179533_21044">
<rect width="12" height="12" fill="white" transform="translate(-0.000488281 0.000976562)"/>
</clipPath>
</defs>
</svg>
