<svg width="14" height="14" viewBox="0 0 14 14" fill="none" xmlns="http://www.w3.org/2000/svg">
<g clip-path="url(#clip0_179533_1136)">
<path d="M8.87476 12.875H5.12476C5.05601 12.875 4.99976 12.9312 4.99976 13V13.5C4.99976 13.7766 5.22319 14 5.49976 14H8.49976C8.77632 14 8.99976 13.7766 8.99976 13.5V13C8.99976 12.9312 8.94351 12.875 8.87476 12.875ZM6.99976 0C4.17007 0 1.87476 2.29531 1.87476 5.125C1.87476 7.02188 2.90601 8.67812 4.43726 9.56406V11.375C4.43726 11.6516 4.66069 11.875 4.93726 11.875H9.06226C9.33882 11.875 9.56226 11.6516 9.56226 11.375V9.56406C11.0935 8.67812 12.1248 7.02188 12.1248 5.125C12.1248 2.29531 9.82944 0 6.99976 0ZM8.99819 8.59062L8.43726 8.91562V10.75H5.56226V8.91562L5.00132 8.59062C3.77163 7.87969 2.99976 6.57031 2.99976 5.125C2.99976 2.91563 4.79038 1.125 6.99976 1.125C9.20913 1.125 10.9998 2.91563 10.9998 5.125C10.9998 6.57031 10.2279 7.87969 8.99819 8.59062Z" fill="black" fill-opacity="0.85"/>
</g>
<defs>
<clipPath id="clip0_179533_1136">
<rect width="14" height="14" fill="white"/>
</clipPath>
</defs>
</svg>
