<svg width="33" height="32" viewBox="0 0 33 32" fill="none" xmlns="http://www.w3.org/2000/svg">
<g clip-path="url(#clip0_179533_1140)">
<path d="M15.1542 0.668208L1.16889 14.642C0.417012 15.3933 0.417012 16.6067 1.16889 17.3579L15.1542 31.3317C15.9061 32.083 17.1205 32.083 17.8723 31.3317L23.7362 25.4727C24.4095 24.7999 24.4095 23.7091 23.7362 23.0363C23.0628 22.3635 21.9711 22.3635 21.2977 23.0363L16.8524 27.4779C16.6653 27.6649 16.3812 27.6649 16.1941 27.4779L5.02584 16.3189C4.8387 16.1319 4.8387 15.8481 5.02584 15.6611L16.1941 4.50202C16.3812 4.31504 16.6653 4.31504 16.8524 4.50202L21.2977 8.9437C21.9711 9.6165 23.0628 9.6165 23.7362 8.9437C24.4095 8.27089 24.4095 7.18006 23.7362 6.50726L17.873 0.648883C17.118 -0.0861144 15.9032 -0.0801642 15.1542 0.668208Z" fill="url(#paint0_linear_179533_1140)"/>
<path d="M15.1542 0.668208L1.16889 14.642C0.417012 15.3933 0.417012 16.6067 1.16889 17.3579L15.1542 31.3317C15.9061 32.083 17.1205 32.083 17.8723 31.3317L23.7362 25.4727C24.4095 24.7999 24.4095 23.7091 23.7362 23.0363C23.0628 22.3635 21.9711 22.3635 21.2977 23.0363L16.8524 27.4779C16.6653 27.6649 16.3812 27.6649 16.1941 27.4779L5.02584 16.3189C4.8387 16.1319 4.8387 15.8481 5.02584 15.6611L16.1941 4.50202C16.6601 4.10031 17.4204 3.28666 18.5368 3.09636C19.3666 2.95493 20.2737 3.26621 21.2583 4.03019C20.6 3.37251 19.4716 2.24541 17.873 0.648883C17.118 -0.0861144 15.9032 -0.0801642 15.1542 0.668208Z" fill="url(#paint1_linear_179533_1140)"/>
<path d="M25.0897 21.7367C25.763 22.4095 26.8547 22.4095 27.5281 21.7367L31.8536 17.4148C32.6054 16.6635 32.6054 15.4501 31.8536 14.6989L27.4905 10.3548C26.8155 9.68281 25.7235 9.68378 25.0497 10.357C24.3763 11.0298 24.3763 12.1206 25.0497 12.7934L27.9966 15.7379C28.1837 15.9249 28.1837 16.2087 27.9966 16.3957L25.0897 19.3002C24.4163 19.973 24.4163 21.0639 25.0897 21.7367Z" fill="url(#paint2_linear_179533_1140)"/>
<path d="M16.5832 19.8427C18.6686 19.8427 20.3592 18.1535 20.3592 16.0698C20.3592 13.9861 18.6686 12.2969 16.5832 12.2969C14.4977 12.2969 12.8071 13.9861 12.8071 16.0698C12.8071 18.1535 14.4977 19.8427 16.5832 19.8427Z" fill="url(#paint3_linear_179533_1140)"/>
</g>
<defs>
<linearGradient id="paint0_linear_179533_1140" x1="15.2836" y1="0.102242" x2="28.5737" y2="8.2183" gradientUnits="userSpaceOnUse">
<stop stop-color="#4285EB"/>
<stop offset="1" stop-color="#2EC7FF"/>
</linearGradient>
<linearGradient id="paint1_linear_179533_1140" x1="17.0662" y1="0.102241" x2="10.5021" y2="34.0272" gradientUnits="userSpaceOnUse">
<stop stop-color="#29CDFF"/>
<stop offset="0.378601" stop-color="#148EFF"/>
<stop offset="1" stop-color="#0A60FF"/>
</linearGradient>
<linearGradient id="paint2_linear_179533_1140" x1="30.0313" y1="8.24395" x2="21.4904" y2="21.6012" gradientUnits="userSpaceOnUse">
<stop stop-color="#FA816E"/>
<stop offset="0.414726" stop-color="#F74A5C"/>
<stop offset="1" stop-color="#F51D2C"/>
</linearGradient>
<linearGradient id="paint3_linear_179533_1140" x1="17.9522" y1="9.60373" x2="15.1104" y2="20.9714" gradientUnits="userSpaceOnUse">
<stop stop-color="#FA8E7D"/>
<stop offset="0.512635" stop-color="#F74A5C"/>
<stop offset="1" stop-color="#F51D2C"/>
</linearGradient>
<clipPath id="clip0_179533_1140">
<rect width="32" height="32" fill="white" transform="translate(0.5)"/>
</clipPath>
</defs>
</svg>
